{
  "accessors": [
    {
      "bufferView": 2,
      "componentType": 5126,
      "count": 1980,
      "max": [
        0.0778803750872612,
        0.0779280737042427,
        6.1439528465271
      ],
      "min": [
        -1.1209970712661743,
        -0.0779281035065651,
        2.1892406940460205
      ],
      "type": "VEC3"
    },
    {
      "bufferView": 2,
      "byteOffset": 23760,
      "componentType": 5126,
      "count": 1980,
      "type": "VEC3"
    },
    {
      "bufferView": 1,
      "componentType": 5126,
      "count": 1980,
      "type": "VEC2"
    },
    {
      "bufferView": 0,
      "componentType": 5125,
      "count": 5280,
      "type": "SCALAR"
    },
    {
      "bufferView": 2,
      "byteOffset": 47520,
      "componentType": 5126,
      "count": 237,
      "max": [
        0.3304523527622223,
        0.06845083832740784,
        6.225769519805908
      ],
      "min": [
        -1.3852589130401611,
        -0.06845083832740784,
        0.0
      ],
      "type": "VEC3"
    },
    {
      "bufferView": 2,
      "byteOffset": 50364,
      "componentType": 5126,
      "count": 237,
      "type": "VEC3"
    },
    {
      "bufferView": 1,
      "byteOffset": 15840,
      "componentType": 5126,
      "count": 237,
      "type": "VEC2"
    },
    {
      "bufferView": 0,
      "byteOffset": 21120,
      "componentType": 5125,
      "count": 480,
      "type": "SCALAR"
    },
    {
      "bufferView": 2,
      "byteOffset": 53208,
      "componentType": 5126,
      "count": 1164,
      "max": [
        -0.1175207570195198,
        9.155273517080786e-08,
        5.979644775390625
      ],
      "min": [
        -1.2076791524887085,
        -1.4495850564344437e-07,
        2.1100127696990967
      ],
      "type": "VEC3"
    },
    {
      "bufferView": 2,
      "byteOffset": 67176,
      "componentType": 5126,
      "count": 1164,
      "type": "VEC3"
    },
    {
      "bufferView": 1,
      "byteOffset": 17736,
      "componentType": 5126,
      "count": 1164,
      "type": "VEC2"
    },
    {
      "bufferView": 0,
      "byteOffset": 23040,
      "componentType": 5125,
      "count": 1200,
      "type": "SCALAR"
    }
  ],
  "asset": {
    "generator": "fab-model-conversion",
    "version": "2.0"
  },
  "bufferViews": [
    {
      "buffer": 0,
      "byteLength": 27840,
      "target": 34963
    },
    {
      "buffer": 0,
      "byteLength": 27048,
      "byteOffset": 27840,
      "byteStride": 8,
      "target": 34962
    },
    {
      "buffer": 0,
      "byteLength": 81144,
      "byteOffset": 54888,
      "byteStride": 12,
      "target": 34962
    }
  ],
  "buffers": [
    {
      "byteLength": 136032,
      "uri": "scene.bin"
    }
  ],
  "materials": [
    {
      "doubleSided": true,
      "name": "mat3",
      "pbrMetallicRoughness": {
        "metallicFactor": 0.0,
        "roughnessFactor": 0.7763932022500211
      }
    },
    {
      "doubleSided": true,
      "name": "mat1.002",
      "pbrMetallicRoughness": {
        "baseColorFactor": [
          0.157,
          0.067,
          0.0,
          1.0
        ],
        "metallicFactor": 0.0,
        "roughnessFactor": 0.981821527606039
      }
    },
    {
      "doubleSided": true,
      "name": "mat2.002",
      "pbrMetallicRoughness": {
        "metallicFactor": 0.0,
        "roughnessFactor": 0.7763932022500211
      }
    }
  ],
  "meshes": [
    {
      "name": "obj4_mat3_0",
      "primitives": [
        {
          "attributes": {
            "NORMAL": 1,
            "POSITION": 0,
            "TEXCOORD_0": 2
          },
          "indices": 3,
          "material": 0,
          "mode": 4
        }
      ]
    },
    {
      "name": "obj4_mat1.002_0",
      "primitives": [
        {
          "attributes": {
            "NORMAL": 5,
            "POSITION": 4,
            "TEXCOORD_0": 6
          },
          "indices": 7,
          "material": 1,
          "mode": 4
        }
      ]
    },
    {
      "name": "obj4_mat2.002_0",
      "primitives": [
        {
          "attributes": {
            "NORMAL": 9,
            "POSITION": 8,
            "TEXCOORD_0": 10
          },
          "indices": 11,
          "material": 2,
          "mode": 4
        }
      ]
    }
  ],
  "nodes": [
    {
      "children": [
        1
      ],
      "matrix": [
        1.0,
        0.0,
        0.0,
        0.0,
        0.0,
        2.220446049250313e-16,
        -1.0,
        0.0,
        0.0,
        1.0,
        2.220446049250313e-16,
        0.0,
        0.0,
        0.0,
        0.0,
        1.0
      ],
      "name": "Sketchfab_model"
    },
    {
      "children": [
        2
      ],
      "matrix": [
        0.009999999776482582,
        0.0,
        0.0,
        0.0,
        0.0,
        0.0,
        0.009999999776482582,
        0.0,
        0.0,
        -0.009999999776482582,
        0.0,
        0.0,
        0.0,
        0.0,
        0.0,
        1.0
      ],
      "name": "SM_Hata_small.fbx"
    },
    {
      "children": [
        3
      ],
      "name": "RootNode"
    },
    {
      "children": [
        4,
        5,
        6
      ],
      "matrix": [
        42.63594055175781,
        0.0,
        0.0,
        0.0,
        0.0,
        -6.946276401202118e-06,
        -42.63594055175725,
        0.0,
        0.0,
        42.63594055175725,
        -6.946276401202118e-06,
        0.0,
        0.0,
        0.0,
        0.0,
        1.0
      ],
      "name": "obj4"
    },
    {
      "mesh": 0,
      "name": "obj4_mat3_0"
    },
    {
      "mesh": 1,
      "name": "obj4_mat1.002_0"
    },
    {
      "mesh": 2,
      "name": "obj4_mat2.002_0"
    }
  ],
  "scene": 0,
  "scenes": [
    {
      "name": "Sketchfab_Scene",
      "nodes": [
        0
      ]
    }
  ]
}
